<mxfile host="app.diagrams.net" modified="2023-08-14T10:04:39.826Z" agent="Mozilla/5.0 (Macintosh; Intel Mac OS X 10_15_7) AppleWebKit/537.36 (KHTML, like Gecko) Chrome/115.0.0.0 Safari/537.36" etag="2O7RQPbQJojy1EtyKA_g" version="21.6.8" type="github">
  <diagram name="Page-1" id="zUeNjrl0LJf6a5AKmF9z">
    <mxGraphModel dx="1076" dy="932" grid="1" gridSize="10" guides="1" tooltips="1" connect="1" arrows="1" fold="1" page="1" pageScale="1" pageWidth="850" pageHeight="1100" math="0" shadow="0">
      <root>
        <mxCell id="0" />
        <mxCell id="1" parent="0" />
        <mxCell id="Z5TrTdGjUa1KkWwHx0h--9" value="" style="whiteSpace=wrap;html=1;" vertex="1" parent="1">
          <mxGeometry x="20" y="20" width="800" height="200" as="geometry" />
        </mxCell>
        <mxCell id="Z5TrTdGjUa1KkWwHx0h--6" value="" style="whiteSpace=wrap;html=1;fillColor=#E6E6E6;fontColor=#ffffff;strokeColor=#432D57;" vertex="1" parent="1">
          <mxGeometry x="20" y="260" width="800" height="800" as="geometry" />
        </mxCell>
        <mxCell id="4XXsGi44gCrg5FCcSx8l-1" value="SearchField.vue &amp;gt;&lt;br&gt;search &amp;lt;button&amp;gt;" style="rounded=0;whiteSpace=wrap;html=1;" parent="1" vertex="1">
          <mxGeometry x="40" y="60" width="120" height="40" as="geometry" />
        </mxCell>
        <mxCell id="z8quFnnqgvauZxEcoYG4-1" value="SearchAccept" style="rounded=0;whiteSpace=wrap;html=1;" parent="1" vertex="1">
          <mxGeometry x="40" y="300" width="120" height="60" as="geometry" />
        </mxCell>
        <mxCell id="Z5TrTdGjUa1KkWwHx0h--7" value="Background" style="text;html=1;align=left;verticalAlign=middle;whiteSpace=wrap;rounded=0;fillColor=none;fontColor=#000000;" vertex="1" parent="1">
          <mxGeometry x="40" y="260" width="100" height="40" as="geometry" />
        </mxCell>
        <mxCell id="Z5TrTdGjUa1KkWwHx0h--11" value="UI" style="text;html=1;align=left;verticalAlign=middle;whiteSpace=wrap;rounded=0;fillColor=none;fontColor=#000000;" vertex="1" parent="1">
          <mxGeometry x="40" y="20" width="50" height="40" as="geometry" />
        </mxCell>
        <mxCell id="Z5TrTdGjUa1KkWwHx0h--15" value="" style="endArrow=classic;html=1;rounded=0;" edge="1" parent="1">
          <mxGeometry relative="1" as="geometry">
            <mxPoint x="130" y="100" as="sourcePoint" />
            <mxPoint x="130" y="300" as="targetPoint" />
          </mxGeometry>
        </mxCell>
        <mxCell id="Z5TrTdGjUa1KkWwHx0h--16" value="Start loading" style="edgeLabel;resizable=0;html=1;align=center;verticalAlign=middle;" connectable="0" vertex="1" parent="Z5TrTdGjUa1KkWwHx0h--15">
          <mxGeometry relative="1" as="geometry">
            <mxPoint y="-70" as="offset" />
          </mxGeometry>
        </mxCell>
        <mxCell id="Z5TrTdGjUa1KkWwHx0h--18" value="ResultFetch" style="rounded=0;whiteSpace=wrap;html=1;" vertex="1" parent="1">
          <mxGeometry x="40" y="430" width="120" height="60" as="geometry" />
        </mxCell>
      </root>
    </mxGraphModel>
  </diagram>
</mxfile>
